<svg xmlns="http://www.w3.org/2000/svg" xmlns:xlink="http://www.w3.org/1999/xlink" width="35" height="28"><defs><filter id="a" width="131.5%" height="139.3%" x="-15.8%" y="-19.7%" filterUnits="objectBoundingBox"><feOffset in="SourceAlpha" result="shadowOffsetOuter1"/><feGaussianBlur in="shadowOffsetOuter1" result="shadowBlurOuter1" stdDeviation="1.5"/><feColorMatrix in="shadowBlurOuter1" values="0 0 0 0 0 0 0 0 0 0 0 0 0 0 0 0 0 0 0.16 0"/></filter><path id="b" d="M3.563 6.072 15.999 18.79 16 22.203c0 .635-.43.877-.956.542l-8.411-5.351H1.138A1.144 1.144 0 0 1 0 16.246V7.22c0-.634.52-1.148 1.138-1.148h2.425Zm19.462-4.747c3.398 2.526 5.546 6.21 5.546 10.167 0 3.998-2.206 7.91-5.544 10.404l.113-.087-.767-.784-.659-.88c2.724-2.034 4.547-5.177 4.661-8.337l.006-.316c0-3.21-1.787-6.274-4.665-8.413Zm-3.157 5.143c1.58 1.433 2.418 3.002 2.418 5.075a6.635 6.635 0 0 1-2.46 5.21l-1.494-1.667c1.027-.839 1.656-2.076 1.656-3.543 0-1.412-.546-2.435-1.702-3.484ZM16 .666l-.001 13.84-8.665-8.862L15.072.173c.513-.363.928-.136.928.493Z"/></defs><g fill="none" fill-rule="evenodd"><g transform="translate(3.714 2.571)"><use xlink:href="#b" fill="#000" filter="url(#a)"/><use xlink:href="#b" fill="#FFF"/></g><path stroke="#FFF" stroke-width="2.286" d="m6 2.571 23.435 23.436"/></g></svg>