<svg xmlns="http://www.w3.org/2000/svg" xmlns:xlink="http://www.w3.org/1999/xlink" width="32" height="32"><defs><filter id="a" width="156.3%" height="139.3%" x="-28.1%" y="-19.7%" filterUnits="objectBoundingBox"><feOffset in="SourceAlpha" result="shadowOffsetOuter1"/><feGaussianBlur in="shadowOffsetOuter1" result="shadowBlurOuter1" stdDeviation="1.5"/><feColorMatrix in="shadowBlurOuter1" values="0 0 0 0 0 0 0 0 0 0 0 0 0 0 0 0 0 0 0.16 0"/></filter><path id="b" d="M16 .666v21.537c0 .635-.43.877-.956.542l-8.411-5.351H1.138A1.144 1.144 0 0 1 0 16.246V7.22c0-.634.52-1.148 1.138-1.148h5.59l8.344-5.9c.513-.362.928-.135.928.494Z"/></defs><g fill="none" fill-rule="evenodd"><g transform="translate(1.714 4.571)"><use xlink:href="#b" fill="#000" filter="url(#a)"/><use xlink:href="#b" fill="#FFF"/></g><path fill="#FFF" fill-rule="nonzero" d="M24.741 26.468c3.339-2.495 5.545-6.407 5.545-10.405 0-3.956-2.149-7.64-5.547-10.167L23.431 7.65c2.877 2.14 4.664 5.204 4.664 8.413 0 3.266-1.852 6.552-4.666 8.654l1.312 1.75Z"/><path fill="#FFF" fill-rule="nonzero" d="M21.54 21.325a6.635 6.635 0 0 0 2.46-5.21c0-2.073-.837-3.642-2.418-5.076L20 12.63c1.156 1.049 1.702 2.073 1.702 3.485 0 1.466-.63 2.704-1.656 3.542l1.493 1.668Z"/></g></svg>